# xmcd CD database file
#
# Track frame offsets:
#	150
#	14887
#	29037
#	42385
#	56972
#	71077
#	85952
#	98945
#	126252
#	140217
#	154352
#	169697
#	185067
#	199435
#	213857
#	228937
#	240062
#	250277
#	273165
#
# Disc length: 3769 seconds
#
# Revision: 0
# Processed by: cddbd v1.5PL3 Copyright (c) Steve Scherf et al.
# Submitted via: CDex 1.51
#
DISCID=260eb713
DTITLE=Leadbelly - Rock Island Line - original 1935-1943 recordings
DYEAR=1900
DGENRE=Blues
TTITLE0=Black Snake Moan
TTITLE1=Four Day Worry Blues
TTITLE2=Packin' Trunk Blues
TTITLE3=Honey, I'm All Out And Down
TTITLE4=Becky Deem, She Was A Gamblin' Girl
TTITLE5=Big Meat Papa
TTITLE6=Fannin Street
TTITLE7=Frankie And Albert
TTITLE8=De Kalb Blues
TTITLE9=Looky Looky Yonder - Black Betty - Yallow Woman's Door Bells
TTITLE10=The Bourgeois Blues
TTITLE11=Poor Howard - Green Corn
TTITLE12=The Boll Weevil
TTITLE13=The Gallis Pole
TTITLE14=Ain't Goin' Down To The Well No Mo' - Go Down Old Hannah
TTITLE15=Good Morning Blues
TTITLE16=How Long
TTITLE17=Irene
TTITLE18=Rock Island Line
EXTD=
EXTT0=
EXTT1=
EXTT2=
EXTT3=
EXTT4=
EXTT5=
EXTT6=
EXTT7=
EXTT8=
EXTT9=
EXTT10=
EXTT11=
EXTT12=
EXTT13=
EXTT14=
EXTT15=
EXTT16=
EXTT17=
EXTT18=
PLAYORDER=
